<?xml version="1.0" encoding="UTF-8" standalone="no"?>
<!-- Created with Inkscape (http://www.inkscape.org/) -->

<svg
   width="800"
   height="800"
   viewBox="0 0 211.66666 211.66667"
   version="1.1"
   id="svg5"
   inkscape:version="1.1.1 (3bf5ae0d25, 2021-09-20)"
   sodipodi:docname="π icon for πMath project.svg"
   xmlns:inkscape="http://www.inkscape.org/namespaces/inkscape"
   xmlns:sodipodi="http://sodipodi.sourceforge.net/DTD/sodipodi-0.dtd"
   xmlns:xlink="http://www.w3.org/1999/xlink"
   xmlns="http://www.w3.org/2000/svg"
   xmlns:svg="http://www.w3.org/2000/svg">
  <sodipodi:namedview
     id="namedview7"
     pagecolor="#505050"
     bordercolor="#eeeeee"
     borderopacity="1"
     inkscape:pageshadow="0"
     inkscape:pageopacity="0"
     inkscape:pagecheckerboard="true"
     inkscape:document-units="px"
     showgrid="false"
     units="px"
     showguides="false"
     inkscape:zoom="0.96102398"
     inkscape:cx="332.45788"
     inkscape:cy="403.21574"
     inkscape:window-width="1920"
     inkscape:window-height="1017"
     inkscape:window-x="-8"
     inkscape:window-y="-8"
     inkscape:window-maximized="1"
     inkscape:current-layer="layer1"
     inkscape:guide-bbox="true">
    <sodipodi:guide
       position="166.00859,19.073069"
       orientation="0,-1"
       id="guide8403" />
    <sodipodi:guide
       position="74.438014,172.67533"
       orientation="0,-1"
       id="guide8405" />
  </sodipodi:namedview>
  <defs
     id="defs2">
    <rect
       x="226.84137"
       y="65.555076"
       width="100.76728"
       height="45.677305"
       id="rect33275" />
    <marker
       style="overflow:visible"
       id="Arrow1Lstart"
       refX="0.0"
       refY="0.0"
       orient="auto"
       inkscape:stockid="Arrow1Lstart"
       inkscape:isstock="true">
      <path
         transform="scale(0.8) translate(12.5,0)"
         style="fill-rule:evenodd;fill:context-stroke;stroke:context-stroke;stroke-width:1.0pt"
         d="M 0.0,0.0 L 5.0,-5.0 L -12.5,0.0 L 5.0,5.0 L 0.0,0.0 z "
         id="path26415" />
    </marker>
    <linearGradient
       inkscape:collect="always"
       id="linearGradient17345">
      <stop
         style="stop-color:#ff7f2a;stop-opacity:1;"
         offset="0"
         id="stop17341" />
      <stop
         style="stop-color:#1a1a1a;stop-opacity:1"
         offset="1"
         id="stop17343" />
    </linearGradient>
    <inkscape:path-effect
       effect="bspline"
       id="path-effect74"
       is_visible="true"
       lpeversion="1"
       weight="33.333333"
       steps="2"
       helper_size="0"
       apply_no_weight="true"
       apply_with_weight="true"
       only_selected="false" />
    <linearGradient
       inkscape:collect="always"
       xlink:href="#linearGradient17345"
       id="linearGradient17347"
       x1="67.939461"
       y1="241.03738"
       x2="105.15847"
       y2="71.484123"
       gradientUnits="userSpaceOnUse" />
  </defs>
  <g
     inkscape:label="Layer 1"
     inkscape:groupmode="layer"
     id="layer1">
    <path
       style="fill:url(#linearGradient17347);fill-opacity:1;stroke:#06050b;stroke-width:1.29645817;stroke-linecap:butt;stroke-linejoin:round;stroke-opacity:0.62650603;stroke-miterlimit:4;stroke-dasharray:none;stroke-dashoffset:0;paint-order:normal"
       d="m 15.676286,18.399396 c 2.0362,-3.778009 4.072388,-7.555997 7.053282,-9.1996638 2.980894,-1.6436667 6.906021,-1.1530258 20.791655,-1.0549185 13.885633,0.098107 37.730775,-0.1962773 66.139777,-0.2453381 28.409,-0.049061 61.38006,0.1471956 77.81671,1.0795729 16.43666,0.9323772 16.33853,2.6005545 15.65159,4.8575125 -0.68694,2.256959 -1.96261,5.102672 -3.77802,7.801222 -1.81541,2.69855 -4.17049,5.249879 -7.99756,7.997522 -3.82708,2.747644 -9.126,5.691488 -16.63297,7.261594 -7.50697,1.570106 -17.22166,1.766362 -22.03008,1.962786 -4.80842,0.196425 -4.71029,0.392679 -4.3669,4.268877 0.34339,3.876198 0.93216,11.432067 0.78544,23.600519 -0.14672,12.168453 -1.02886,28.948327 -0.93054,41.564169 0.0983,12.61585 1.17705,21.06599 2.6612,28.39415 1.48416,7.32816 3.3735,13.53338 5.35683,17.96711 1.98333,4.43373 4.06027,7.09544 6.74115,9.11155 2.68087,2.01611 5.96526,3.38654 9.60144,3.89941 3.63619,0.51287 7.65341,0.1657 10.89939,-1.03885 3.24598,-1.20455 5.81776,-3.30242 8.37065,-5.38488 3.10159,-3.4462 8.59382,-9.54868 9.18074,-9.96623 0.58692,-0.41754 4.16119,-0.76625 4.6932,2.29582 0.532,3.06207 -0.42221,9.38263 -2.22296,14.99656 -1.80074,5.61393 -4.44782,10.5209 -8.07864,14.34798 -3.63083,3.82709 -8.24518,6.57401 -12.36911,8.35157 -4.12394,1.77757 -7.75728,2.58568 -11.68269,2.94055 -3.92541,0.35487 -8.14258,0.25641 -12.01488,-0.23587 -3.87229,-0.49228 -7.39957,-1.37842 -10.78348,-3.00543 -3.38391,-1.627 -6.62407,-3.99481 -9.91553,-7.48618 -3.29146,-3.49137 -6.63373,-8.10595 -8.99048,-14.5371 -2.35676,-6.43115 -3.72755,-14.67823 -3.87327,-29.15482 -0.14572,-14.47659 0.93369,-35.18163 2.06219,-52.845206 1.12851,-17.663572 2.30605,-32.284666 2.77227,-39.779327 0.46623,-7.494661 0.22091,-7.86264 0.0614,-8.034551 -0.15947,-0.171911 -0.2331,-0.147367 -9.58725,-0.137639 -9.35415,0.0097 -27.987809,0.0046 -36.611154,0.372679 -8.623346,0.36808 -7.235334,1.109156 -8.065988,18.626588 -0.830654,17.517433 -3.879533,51.808956 -5.906647,71.543996 -2.027115,19.73504 -3.032183,24.91106 -4.112141,29.4666 -1.079957,4.55554 -2.234684,8.49015 -3.677062,12.47722 -1.442379,3.98707 -3.172351,8.0265 -5.277185,11.39697 -2.104834,3.37047 -4.584352,6.07176 -7.566929,7.83492 -2.982576,1.76317 -6.467714,2.58798 -9.772619,2.92818 -3.304905,0.34021 -6.427975,0.19558 -9.833591,-0.63547 -3.405616,-0.83105 -7.093096,-2.34852 -9.920782,-4.50302 -2.827686,-2.1545 -4.794965,-4.94572 -6.218691,-8.2058 -1.423727,-3.26007 -2.303129,-6.98756 -2.49845,-10.17592 -0.195321,-3.18835 0.293645,-5.83675 2.206774,-8.24044 1.913129,-2.4037 5.250083,-4.56215 8.488685,-5.88709 3.238602,-1.32495 6.378302,-1.81624 8.926275,-4.22273 2.547973,-2.40649 4.504168,-6.72803 6.659911,-11.98008 2.155742,-5.25205 4.510776,-11.43401 6.228093,-17.22377 1.717317,-5.78976 2.796726,-11.18681 4.072432,-17.51628 1.275706,-6.329461 2.747628,-13.590943 4.170532,-21.294233 1.422903,-7.703291 2.796696,-15.847928 3.397763,-23.256789 0.601067,-7.408861 0.429343,-14.081576 0.343475,-17.418137 -0.08587,-3.33656 -0.08587,-3.33656 -1.815317,-3.275232 -1.729451,0.06133 -5.188467,0.183988 -8.868422,0.760494 -3.679956,0.576505 -7.580549,1.606851 -10.990624,2.710824 -3.410075,1.103972 -6.329387,2.281509 -8.954425,3.618553 -2.625038,1.337043 -4.955581,2.833498 -6.758782,4.403637 -1.803202,1.570138 -3.078868,3.213785 -4.268716,4.967901 -1.189849,1.754116 -2.29379,3.61855 -3.299635,5.397183 -1.005845,1.778634 -1.9135295,3.471343 -2.8825755,5.311306 C 7.2860384,68.81389 6.255693,70.800984 5.5934451,71.819016 4.9311973,72.837049 4.6368118,72.886113 4.4879764,72.772665 4.339141,72.659217 4.3360744,72.38323 4.3728717,69.930061 4.4096691,67.476893 4.4863317,62.846473 4.659595,59.083754 4.8328582,55.321035 5.1027273,52.426255 5.7405718,48.439705 6.3784162,44.453155 7.3835601,39.378403 9.1020087,34.186168 10.820457,28.993934 13.247565,23.698424 15.676286,18.399396 Z"
       id="path72"
       inkscape:path-effect="#path-effect74"
       inkscape:original-d="m 15.676286,18.399396 c 0,0 4.072704,-7.555827 6.1086,-11.3340276 3.925548,0.4909251 7.850675,0.9815658 11.775615,1.471952 23.846358,-0.2941318 47.6915,-0.5885162 71.536859,-0.8831713 32.97264,0.1965288 65.9437,0.3927851 98.91515,0.5887808 -0.0979,1.6685101 -0.19599,3.3366891 -0.29438,5.0046361 -1.27546,2.846095 -2.55112,5.691811 -3.82708,8.53732 -2.35491,2.551699 -4.70998,5.10303 -7.06537,7.65415 -5.29887,2.944225 -10.59779,5.888072 -15.89708,8.83171 -9.71481,0.19653 -19.4295,0.392784 -29.14464,0.58878 0.0984,0.19653 0.19652,0.392787 0.29439,0.588782 0.58905,7.556434 1.17782,15.112302 1.76634,22.668055 -0.88193,16.781185 -1.76406,33.56106 -2.64652,50.341747 1.07905,8.45096 2.15777,16.9011 3.2363,25.35152 1.88973,6.20588 3.77907,12.4111 5.66827,18.61645 2.07733,2.66213 4.15427,5.32384 6.23107,7.98544 3.28486,1.37078 6.56925,2.74121 9.85358,4.11147 3.98811,-0.34436 8.00533,-0.69153 11.96326,-1.03386 2.53424,-2.06677 7.65868,-6.24739 7.65868,-6.24739 0,0 8.5941,-9.54843 9.30476,-10.33861 0.46293,-0.0449 4.0372,-0.39358 6.05547,-0.59078 -0.95399,6.32109 -1.9082,12.64165 -2.8627,18.9621 -2.64698,4.90754 -5.29405,9.81451 -7.94156,14.72152 -4.61427,2.7473 -9.22862,5.49422 -13.84333,8.24093 -3.63328,0.80842 -7.26662,1.61653 -10.90043,2.42442 -4.21709,-0.0982 -8.43426,-0.19666 -12.65179,-0.29539 -3.5271,-0.8859 -7.05438,-1.77205 -10.58209,-2.6585 -3.2401,-2.36769 -6.48025,-4.7355 -9.72087,-7.10372 -3.34222,-4.61461 -6.68449,-9.22918 -10.02724,-13.84432 -1.37059,-8.24717 -2.74139,-16.49425 -4.11248,-24.74177 1.07972,-20.70561 2.15913,-41.41065 3.23829,-62.11637 1.17785,-14.621415 2.35539,-29.242509 3.53269,-43.864162 -0.24507,-0.367731 -0.49039,-0.735711 -0.73598,-1.103963 -0.0733,0.02479 -0.14693,0.04933 -0.22079,0.0736 -18.63455,-0.0049 -37.268209,-0.01 -55.903316,-0.01539 1.388365,0.741387 2.776377,1.482463 4.164211,2.22332 -3.048805,34.293937 -6.097683,68.585465 -9.147025,102.878955 -1.004869,5.17662 -2.009937,10.35264 -3.015334,15.52872 -1.154509,3.93503 -2.309235,7.86964 -3.464248,11.80406 -1.72974,4.03977 -3.459713,8.0792 -5.190018,12.11853 -2.479405,2.70172 -4.958924,5.40301 -7.438857,8.1042 -3.485422,0.8252 -6.970559,1.65001 -10.45685,2.47476 -3.123605,-0.1444 -6.246675,-0.28903 -9.370506,-0.43395 -3.687442,-1.5173 -7.374922,-3.03477 -11.062896,-4.55259 -1.967293,-2.79135 -3.934569,-5.58257 -5.902551,-8.37467 -0.879334,-3.72806 -1.758735,-7.45555 -2.638529,-11.18384 0.489262,-2.64831 0.978227,-5.29671 1.466959,-7.94554 3.337425,-2.15831 6.674376,-4.31676 10.011269,-6.4756 3.14016,-0.49106 6.27986,-0.98235 9.419493,-1.47394 1.956584,-4.32155 3.912779,-8.64309 5.868832,-12.96516 2.355434,-6.18205 4.710466,-12.36401 7.065371,-18.54659 1.079716,-5.397 2.159126,-10.79405 3.238291,-16.19147 1.472248,-7.261509 2.94417,-14.522991 4.415857,-21.784885 1.374113,-8.144698 2.747906,-16.289335 4.121464,-24.4344 -0.171466,-6.672715 -0.343191,-13.34543 -0.515183,-20.018544 2.65e-4,2.65e-4 2.65e-4,2.65e-4 0,0 -3.458891,0.12293 -6.917907,0.24559 -10.37726,0.367988 -3.900485,1.030652 -7.801078,2.060998 -11.702015,3.0911 -2.919167,1.177849 -5.838479,2.355387 -8.758114,3.532682 -2.330372,1.49678 -4.660916,2.993234 -6.991771,4.489456 -1.275452,1.643975 -2.551118,3.287622 -3.827074,4.931037 -1.103721,1.864775 -2.207663,3.729209 -3.311892,5.593416 -0.907457,1.693044 -1.8151423,3.385753 -2.7231106,5.078235 -1.0301221,1.987439 -2.0604678,3.974533 -3.0910987,5.961403 -0.2941315,0.04933 -0.5885161,0.0984 -0.883171,0.147196 -0.00307,-0.275997 -0.00613,-0.551984 -0.0092,-0.827974 0.07693,-4.630343 0.153593,-9.260763 0.2299925,-13.891543 C 4.833178,55.321065 5.1030305,52.426283 5.3726236,49.531182 6.3787212,44.453215 7.3838652,39.378463 8.3901243,34.29648 10.820776,28.99408 15.676286,18.399396 15.676286,18.399396 Z"
       sodipodi:nodetypes="scccccccccccccccccccccccccccccccccccccccccccccccccccccccccccccccccccss" />
    <text
       xml:space="preserve"
       transform="matrix(0.51146035,0,0,0.41558099,-34.115329,-12.19665)"
       id="text33273"
       style="font-style:normal;font-variant:normal;font-weight:normal;font-stretch:normal;font-size:40px;line-height:1.25;font-family:'Book Antiqua';-inkscape-font-specification:'Book Antiqua';white-space:pre;shape-inside:url(#rect33275);fill:#000000;fill-opacity:1;stroke:none"><tspan
         x="226.8418"
         y="99.417661"
         id="tspan138214"><tspan
           style="font-style:italic;-inkscape-font-specification:'Book Antiqua Italic';fill:#c56526"
           id="tspan138212">Math</tspan></tspan></text>
  </g>
</svg>
